<svg width="97" height="127" viewBox="0 0 97 127" fill="none" xmlns="http://www.w3.org/2000/svg">
<path d="M47.5164 0.0638845C50.9734 -0.50276 57.8241 2.82227 60.221 5.19971C68.8643 13.7721 72.9566 24.6162 72.4283 36.7514C71.8307 50.479 62.4906 59.7382 48.9734 60.6807C43.7054 60.795 38.5449 59.8226 34.1921 56.6851C19.1195 45.8217 22.1178 24.4598 31.4012 10.8345C35.5067 4.80878 40.2946 1.28759 47.5164 0.0638845Z" fill="#032233"></path>
<path d="M0.0165736 91.338C4.83886 93.2586 8.721 95.4577 13.3662 97.5498C23.0217 101.898 32.4843 106.589 42.163 110.91C49.2022 114.26 53.0376 111.369 59.3511 108.415C67.1272 104.776 75.0647 101.155 82.9349 97.6922C87.5938 95.6425 91.66 93.3524 96.5139 91.4024C96.5807 95.285 97.0185 100.995 95.7849 104.539L95.7179 104.618C93.5545 107.13 77.6822 113.892 73.8284 115.698L59.9698 122.14C55.2123 124.377 49.1429 128.262 43.6863 125.639C29.6727 118.903 15.0845 112.839 1.53963 105.258C-0.304406 104.225 0.0279623 93.6834 0.0165736 91.338Z" fill="#032233"></path>
<path d="M0.146718 68.3571C0.963681 68.5977 5.98097 71.0716 7.12076 71.5915L26.3209 80.4891C32.2556 83.254 42.2307 88.5304 48.4024 89.3662C51.9698 89.8494 66.5682 82.3789 70.1431 80.688L84.2116 74.1746C87.5234 72.6069 93.9761 70.2662 96.4737 68.1124C96.6169 72.4961 97.0955 78.0582 95.5993 82.0884C94.5716 83.6535 87.3719 86.4439 85.1692 87.4413L70.0706 94.3602C63.1763 97.4505 54.9997 101.908 47.7023 103.966C39.4718 101.071 31.5446 97.0884 23.6629 93.5653L11.5935 88.0398C8.79049 86.757 4.69149 84.975 2.113 83.3946C-0.237478 78.3617 0.189018 73.8943 0.146718 68.3571Z" fill="#1e3a4d"></path>
<path d="M17.1096 42.764L17.5667 42.7272C18.2661 43.1779 19.6223 49.2802 20.2275 50.6989C28.025 68.9765 53.247 72.3822 67.996 60.4545C74.6184 55.0991 76.7683 51.1321 78.0348 42.582C82.0887 44.0044 94.2848 48.1541 96.1695 51.7664C96.7763 52.9422 96.8895 54.3112 96.4844 55.5706C95.3404 59.196 91.0929 60.7908 87.8493 62.5136C84.7673 64.0778 81.3519 65.5099 78.191 66.9726L62.9167 74.1151C57.5201 76.5946 51.7 80.9239 45.3479 79.4141C41.1836 78.4245 37.3093 76.193 33.4841 74.3513L19.4298 67.5666C15.0482 65.4311 4.22154 61.1632 1.01946 57.93C0.443984 56.3932 -0.383907 51.748 0.469778 50.7379C3.2449 47.4549 13.3945 44.0746 17.1096 42.764Z" fill="#032233"></path>
</svg>